<svg xmlns="http://www.w3.org/2000/svg" viewBox="0 0 1000 200">
    <path fill-opacity="0.2" d="M375.3,131.3c-23.3-19.1-42.3-42.3-56.5-68.9c-23.3-43.2-31.1-91.2-22.9-139.1c-2.3,1.6-4.6,3.3-6.8,5.1C219.3-29,124.9-10.3,55.6,38.3C-20.5,93.4-32.8,181.8,20.1,248.2c1.7,2.1,3.4,4.2,5.2,6.2C25.1,254.3,25,254.2,25,254.2l-0.1,0.1c11.8-6.1,23.3-13.1,34.4-20.9c48.8-34.6,90.4-80.2,123.3-132.8c14.2-22.6,26-46.4,35-70.8c-10.3,10.2-21.3,19.6-32.8,28.3c-23.7,17.9-49,33.2-75.2,45.6c-31.1,14.7-63.5,25.4-96.5,32c-2.1,0.4-4.2,0.9-6.3,1.3c44.1,20,93.4,30.3,143.9,28.8c42.3-1.2,84.1-8,124.6-20.1c42.1-12.5,82.4-30.4,119.8-53.1c-1.7-1.1-3.4-2.2-5.1-3.3C375.7,131.6,375.5,131.4,375.3,131.3z"/>
    <path fill-opacity="0.2" d="M624.7,131.3c23.3-19.1,42.3-42.3,56.5-68.9c23.3-43.2,31.1-91.2,22.9-139.1c2.3,1.6,4.6,3.3,6.8,5.1C780.7-29,875.1-10.3,944.4,38.3c76.1,55.1,88.4,143.5,35.5,209.9c-1.7,2.1-3.4,4.2-5.2,6.2c-0.1,0.1-0.2,0.2-0.2,0.3l0.1,0.1c-11.8-6.1-23.3-13.1-34.4-20.9c-48.8-34.6-90.4-80.2-123.3-132.8c-14.2-22.6-26-46.4-35-70.8c10.3,10.2,21.3,19.6,32.8,28.3c23.7,17.9,49,33.2,75.2,45.6c31.1,14.7,63.5,25.4,96.5,32c2.1,0.4,4.2,0.9,6.3,1.3c-44.1,20-93.4,30.3-143.9,28.8c-42.3-1.2-84.1-8-124.6-20.1c-42.1-12.5-82.4-30.4-119.8-53.1c1.7-1.1,3.4-2.2,5.1-3.3C624.3,131.6,624.5,131.4,624.7,131.3z"/>
</svg> 